<?xml version="1.0" encoding="UTF-8"?>
<svg xmlns="http://www.w3.org/2000/svg" viewBox="0 0 1342 894" width="1342" height="894">
<path d="M657.08 455.5C664.22 449.87 671.36 444.23 678.5 438.6C687.06 445.39 694.91 453.15 703.22 460.27C721.34 475.79 739.3 491.5 757.43 507.05C767.4 515.6 777 525.18 787.89 532.58C803.67 543.32 828.71 544.66 838.56 525.09C843.11 516.03 839.69 506.42 835.49 498.03C828.52 484.08 820.84 470.4 814.22 456.29C801.27 428.65 786.43 401.88 773.07 374.43C755.1 337.54 736.99 300.65 718.45 264.06C715.64 258.51 712.96 252.87 710.27 247.26C701.41 228.8 692.88 199.97 666.55 204.27C655.76 206.03 648.95 214.41 643.87 223.35C636.47 236.37 631.42 250.66 624.36 263.85C614.61 282.05 606.31 301.13 597.18 319.66C575.76 363.11 554.13 406.5 532.17 449.68C523.05 467.62 514.37 485.78 505.11 503.64C502 509.64 498.37 519.97 503.8 525.72C508.2 530.38 516.42 529.91 521.69 527.22C526.18 524.93 529.7 521.21 533.46 517.96C540.25 512.11 546.95 506.1 553.59 500.08C572.5 482.95 592.38 466.85 611.57 450.06C628.79 434.98 645.98 419.7 663.77 405.29C673.82 397.14 683.51 385.44 697.5 385.96C701.49 386.11 706.11 387.53 708.98 390.52C714.26 396.02 713.39 402.62 708.2 407.7C695.8 419.82 679.94 430.67 666.63 442.11C653.71 453.21 640.47 463.9 627.67 475.15C604.6 495.43 581.87 516.14 558.33 535.86C538.75 552.27 520.49 565.07 493.85 553.57C489.54 551.71 485.54 548.56 482.38 545.13C457.89 518.54 483.61 484.58 496.16 458.66C508.92 432.3 522.91 406.56 535.7 380.22C558.1 334.1 581.48 288.46 603.79 242.31C616.79 215.42 626.36 185.1 659.43 177.8C664.3 176.72 669.46 176.07 674.47 176.37C679.37 176.68 684.67 177.56 689.29 179.24C719.04 190.11 726.59 218.28 739.6 243.88C748.51 261.4 756.91 279.18 765.74 296.75C791.26 347.55 817.2 398.11 842.48 449.03C856.66 477.58 878.95 507.56 862.54 540.07C848.25 568.36 813.24 574.22 786.08 562.42C766.66 553.99 751.84 538.01 735.88 524.6C719.24 510.62 703.37 495.81 686.85 481.65C676.83 473.06 666.7 464.53 657.08 455.5Z" fill="#2598ff" fill-rule="evenodd" stroke="#2598ff" stroke-width="0.25" stroke-linejoin="round"/>
</svg>